<svg width="72" height="72" viewBox="0 0 72 72" fill="none" xmlns="http://www.w3.org/2000/svg">
<rect width="72" height="72" rx="36" fill="#16B746"/>
<path d="M29.6667 24.9165L26.5 31.2498M42.3333 24.9165L45.5 31.2498" stroke="white" stroke-width="5" stroke-linecap="round"/>
<path fill-rule="evenodd" clip-rule="evenodd" d="M50.2498 32.8332H48.3533C47.6112 32.8332 46.9687 33.3485 46.8077 34.0731L44.4675 44.6035C44.1456 46.0523 42.8606 47.0832 41.3764 47.0832H30.6234C29.1392 47.0832 27.8541 46.0523 27.5321 44.6035L25.192 34.0731C25.031 33.3485 24.3885 32.8332 23.6464 32.8332H21.7498C20.8754 32.8332 20.1665 32.1243 20.1665 31.2498C20.1665 30.3754 20.8754 29.6665 21.7498 29.6665H50.2498C51.1243 29.6665 51.8332 30.3754 51.8332 31.2498C51.8332 32.1243 51.1243 32.8332 50.2498 32.8332ZM34.4165 35.9998C34.4165 35.1254 33.7076 34.4165 32.8332 34.4165C31.9587 34.4165 31.2498 35.1254 31.2498 35.9998V40.7498C31.2498 41.6243 31.9587 42.3332 32.8332 42.3332C33.7076 42.3332 34.4165 41.6243 34.4165 40.7498V35.9998ZM40.7498 35.9998C40.7498 35.1254 40.041 34.4165 39.1665 34.4165C38.292 34.4165 37.5832 35.1254 37.5832 35.9998V40.7498C37.5832 41.6243 38.292 42.3332 39.1665 42.3332C40.041 42.3332 40.7498 41.6243 40.7498 40.7498V35.9998Z" fill="white"/>
</svg>
