<svg width="20" height="17" viewBox="0 0 20 17" fill="none" xmlns="http://www.w3.org/2000/svg">
<path d="M0.9 8V0.86H3.18C4.1 0.86 4.77 1.04667 5.19 1.42C5.61667 1.79333 5.83 2.30667 5.83 2.96C5.83 3.34667 5.74333 3.71 5.57 4.05C5.39667 4.39 5.10667 4.66333 4.7 4.87C4.3 5.07667 3.75333 5.18 3.06 5.18H2.41V8H0.9ZM0.1 6.93V5.96H3.95V6.93H0.1ZM0.1 5.18V3.94H3.03V5.18H0.1ZM2.91 3.94C3.19667 3.94 3.44333 3.91 3.65 3.85C3.85667 3.78333 4.01667 3.68 4.13 3.54C4.24333 3.4 4.3 3.22333 4.3 3.01C4.3 2.70333 4.20333 2.47667 4.01 2.33C3.81667 2.17667 3.51333 2.1 3.1 2.1H2.41V3.94H2.91Z" fill="black"/>
<path d="M7.41 15C7.01 15 6.72 14.71 6.72 14.31V10.62C6.72 10.23 7.01 9.94 7.4 9.94C7.78 9.94 8.06 10.23 8.06 10.62V13.86H9.73V10.62C9.73 10.23 10.02 9.94 10.41 9.94C10.79 9.94 11.07 10.23 11.07 10.62V13.86H12.74V10.62C12.74 10.23 13.03 9.94 13.42 9.94C13.81 9.94 14.08 10.23 14.08 10.62V14.31C14.08 14.71 13.79 15 13.4 15H7.41ZM17.1486 15.12C16.7686 15.12 16.4786 14.82 16.4786 14.43V11.18H15.4186C15.0886 11.18 14.8386 10.94 14.8386 10.61C14.8386 10.29 15.0886 10.04 15.4186 10.04H18.8886C19.2286 10.04 19.4686 10.29 19.4686 10.61C19.4686 10.94 19.2286 11.18 18.8886 11.18H17.8186V14.43C17.8186 14.82 17.5386 15.12 17.1486 15.12Z" fill="black"/>
<path d="M13 2L2 13" stroke="black" stroke-linecap="round"/>
</svg>
