<svg width="25" height="25" viewBox="0 0 25 25" fill="none" xmlns="http://www.w3.org/2000/svg">
<path d="M8.01863 21.2267C9.06068 21.2267 9.90542 20.382 9.90542 19.3399C9.90542 18.2979 9.06068 17.4531 8.01863 17.4531C6.97658 17.4531 6.13184 18.2979 6.13184 19.3399C6.13184 20.382 6.97658 21.2267 8.01863 21.2267Z" fill="#787878"/>
<path d="M16.981 21.2267C18.0231 21.2267 18.8678 20.382 18.8678 19.3399C18.8678 18.2979 18.0231 17.4531 16.981 17.4531C15.939 17.4531 15.0942 18.2979 15.0942 19.3399C15.0942 20.382 15.939 21.2267 16.981 21.2267Z" fill="#787878"/>
<path d="M3.30176 3.30176H5.38509L6.01009 6.42676M6.01009 6.42676L7.5633 12.0347C7.82567 12.982 8.73753 13.5983 9.71433 13.4884L17.7574 12.5835C18.1978 12.534 18.553 12.2005 18.6303 11.7642L19.3674 7.60111C19.4759 6.9886 19.0048 6.42676 18.3827 6.42676H6.01009Z" stroke="#787878" stroke-width="2" stroke-linecap="round" stroke-linejoin="round"/>
</svg>
