<svg width="25" height="25" viewBox="0 0 25 25" fill="none" xmlns="http://www.w3.org/2000/svg">
<path d="M3.43436 5.45234C3.66917 4.45129 4.45079 3.66966 5.45184 3.43485C6.31938 3.23135 7.22223 3.23135 8.08976 3.43485C9.09081 3.66966 9.87244 4.45129 10.1073 5.45234C10.3108 6.31987 10.3108 7.22273 10.1073 8.09026C9.87244 9.09131 9.09081 9.87293 8.08976 10.1077C7.22223 10.3112 6.31938 10.3112 5.45184 10.1077C4.45079 9.87293 3.66917 9.09131 3.43436 8.09026C3.23087 7.22273 3.23087 6.31987 3.43436 5.45234Z" stroke="#787878" stroke-width="2"/>
<path d="M3.43436 16.9103C3.66917 15.9093 4.45079 15.1276 5.45184 14.8928C6.31938 14.6894 7.22223 14.6894 8.08976 14.8928C9.09081 15.1276 9.87244 15.9093 10.1073 16.9103C10.3108 17.7778 10.3108 18.6807 10.1073 19.5482C9.87244 20.5493 9.09081 21.3309 8.08976 21.5657C7.22223 21.7692 6.31938 21.7692 5.45184 21.5657C4.45079 21.3309 3.66917 20.5493 3.43436 19.5482C3.23087 18.6807 3.23087 17.7778 3.43436 16.9103Z" stroke="#787878" stroke-width="2"/>
<path d="M14.8928 5.45234C15.1276 4.45129 15.9093 3.66966 16.9103 3.43485C17.7778 3.23135 18.6807 3.23135 19.5482 3.43485C20.5493 3.66966 21.3309 4.45129 21.5657 5.45234C21.7692 6.31987 21.7692 7.22273 21.5657 8.09026C21.3309 9.09131 20.5493 9.87293 19.5482 10.1077C18.6807 10.3112 17.7778 10.3112 16.9103 10.1077C15.9093 9.87293 15.1276 9.09131 14.8928 8.09026C14.6894 7.22273 14.6894 6.31987 14.8928 5.45234Z" stroke="#787878" stroke-width="2"/>
<path d="M14.8928 16.9103C15.1276 15.9093 15.9093 15.1276 16.9103 14.8928C17.7778 14.6894 18.6807 14.6894 19.5482 14.8928C20.5493 15.1276 21.3309 15.9093 21.5657 16.9103C21.7692 17.7778 21.7692 18.6807 21.5657 19.5482C21.3309 20.5493 20.5493 21.3309 19.5482 21.5657C18.6807 21.7692 17.7778 21.7692 16.9103 21.5657C15.9093 21.3309 15.1276 20.5493 14.8928 19.5482C14.6894 18.6807 14.6894 17.7778 14.8928 16.9103Z" stroke="#787878" stroke-width="2"/>
</svg>
