<svg width="25" height="25" viewBox="0 0 25 25" fill="none" xmlns="http://www.w3.org/2000/svg">
<g clip-path="url(#clip0_650_2339)">
<path d="M23.6842 6.8091C22.6861 4.96287 21.2223 3.22524 19.5709 2.12005C15.8569 -0.480006 10.3404 -0.690821 6.457 1.50038C2.47685 3.65964 -0.269322 8.1826 0.0210229 13.0952C0.262977 18.3592 3.89229 22.9397 8.58621 24.3771C13.5705 26.0444 19.208 24.2685 22.426 20.1991C25.2024 16.6216 25.9041 10.9807 23.6842 6.8091ZM19.8613 19.2792C18.6576 20.3588 17.3631 21.4895 15.6997 21.1318C14.7923 20.9082 14.1391 20.2374 13.9092 19.3303C13.7096 18.5381 13.764 17.7779 13.8608 16.9602L20.6234 16.9474L20.442 16.7047C17.0304 12.45 14.3205 7.64597 12.5059 2.5864C10.5581 7.70986 7.82405 12.7694 4.56976 16.973L11.1993 16.9602C11.163 17.8993 11.3687 19.0428 10.9574 19.8477C10.546 20.7293 9.57822 21.1637 8.68299 21.1893C6.00939 20.9274 4.23102 18.4423 3.21482 16.0914C2.02924 13.2038 2.46476 9.23667 4.32781 6.76438C6.91672 3.12941 11.4897 1.66009 15.7481 3.05275C18.3491 3.91518 20.6537 6.05528 21.7969 8.77032C23.1458 12.137 22.3474 16.6408 19.8613 19.2792Z" fill="#16B746"/>
</g>
<defs>
<clipPath id="clip0_650_2339">
<rect width="25" height="25" rx="12.5" fill="white"/>
</clipPath>
</defs>
</svg>
